<?xml version="1.0" encoding="iso-8859-1"?>
<!-- Generator: Adobe Illustrator 19.0.0, SVG Export Plug-In . SVG Version: 6.00 Build 0)  -->
<svg version="1.1" id="Capa_1" xmlns="http://www.w3.org/2000/svg" xmlns:xlink="http://www.w3.org/1999/xlink" x="0px" y="0px"
	 viewBox="0 0 512.018 512.018" style="enable-background:new 0 0 512.018 512.018;" xml:space="preserve">
<g>
	<g>
		<g>
			<path d="M119.563,239.768l-94.652,7.277l90.286,67.723c2.464,1.845,3.834,4.808,3.643,7.881c-0.191,3.073-1.916,5.843-4.59,7.37
				l-47.562,27.178l117.928,47.17h25.67v-18.286c0.013-10.094,8.192-18.273,18.286-18.286h54.857
				c10.094,0.013,18.273,8.192,18.286,18.286v18.286h25.08l164.161-90.295l-92.187-38.411c-2.5-1.043-4.41-3.141-5.213-5.728
				c-0.803-2.587-0.418-5.398,1.052-7.673l87.491-135.205l-141.366,39.267c-2.753,0.763-5.705,0.196-7.979-1.533
				c-2.274-1.729-3.61-4.422-3.61-7.279V7.081L226.125,118.018c-2.807,3.018-7.286,3.786-10.938,1.875L45.598,31.063l81.696,196.071
				c1.128,2.706,0.89,5.79-0.64,8.291C125.124,237.926,122.486,239.541,119.563,239.768z M130.277,123.518
				c2.841-2.602,7.007-3.145,10.42-1.357l88.464,46.339l47.571-51.232c2.559-2.753,6.542-3.659,10.04-2.285
				c3.498,1.374,5.799,4.75,5.799,8.508v94.161l83.268-23.134c3.659-1.012,7.562,0.34,9.81,3.399
				c2.248,3.059,2.373,7.188,0.315,10.378l-51.803,80.071l55.116,22.964c3.244,1.348,5.427,4.437,5.616,7.945
				c0.189,3.508-1.651,6.813-4.732,8.501l-70.705,38.884c-4.423,2.431-9.98,0.816-12.411-3.607
				c-2.431-4.423-0.816-9.98,3.607-12.411l54.063-29.741l-47.696-19.875c-2.5-1.043-4.41-3.141-5.213-5.728
				c-0.803-2.587-0.418-5.398,1.052-7.674l44.67-69.036l-71.652,19.902c-2.753,0.763-5.705,0.196-7.979-1.533
				s-3.61-4.422-3.61-7.279v-82.902l-36.482,39.286c-2.805,3.022-7.286,3.79-10.938,1.875l-72.241-37.839l52.464,125.92
				c1.128,2.706,0.89,5.79-0.64,8.291s-4.168,4.116-7.092,4.343l-24.991,1.92l40.536,30.402c2.464,1.845,3.834,4.808,3.643,7.881
				s-1.916,5.843-4.59,7.37l-21.411,12.232l4.268,1.705c4.071,1.626,6.415,5.913,5.586,10.218c-0.828,4.305-4.596,7.416-8.979,7.415
				c-1.162,0.003-2.314-0.219-3.393-0.652l-21.848-8.741c-3.261-1.3-5.488-4.353-5.732-7.855c-0.244-3.502,1.54-6.834,4.589-8.573
				l25.768-14.723l-48.83-36.616c-3.045-2.283-4.357-6.213-3.294-9.867s4.277-6.268,8.071-6.562l36.607-2.813l-57.339-137.616
				C126.535,130.223,127.438,126.121,130.277,123.518z"/>
			<path d="M173.714,433.956v16.125h164.571v-16.125c-0.008-6.24-5.064-11.296-11.304-11.304H185.018
				C178.778,422.66,173.722,427.716,173.714,433.956z"/>
			<polygon points="512,468.366 347.429,468.366 164.571,468.366 0,468.366 0,504.938 512.018,504.938 			"/>
			<rect x="228.571" y="386.081" width="54.857" height="18.286"/>
		</g>
	</g>
</g>
<g>
</g>
<g>
</g>
<g>
</g>
<g>
</g>
<g>
</g>
<g>
</g>
<g>
</g>
<g>
</g>
<g>
</g>
<g>
</g>
<g>
</g>
<g>
</g>
<g>
</g>
<g>
</g>
<g>
</g>
</svg>
